
<svg width="280" height="40" viewBox="0 0 280 40" fill="none" xmlns="http://www.w3.org/2000/svg">
  <!-- House icon element -->
  <path d="M8 32V20L16 12L24 20V32H20V24H12V32H8Z" fill="currentColor"/>
  <path d="M16 4L32 20H28V32H24V20L16 12L8 20V32H4V20H0L16 4Z" fill="currentColor" opacity="0.8"/>
  
  <!-- Text: PhCityRent -->
  <g transform="translate(40, 8)">
    <!-- Ph -->
    <path d="M0 0V24H3V14H9C11.5 14 13 12.5 13 10V4C13 1.5 11.5 0 9 0H0ZM3 3H9C9.5 3 10 3.5 10 4V10C10 10.5 9.5 11 9 11H3V3Z" fill="currentColor"/>
    <path d="M16 6V24H19V16H24V13H19V9H25V6H16Z" fill="currentColor"/>
    
    <!-- City -->
    <path d="M32 16V24H35V19H38V24H41V16H44V13H41V10H38V13H35V10H32V13H29V16H32Z" fill="currentColor"/>
    <path d="M48 6V24H51V6H48Z" fill="currentColor"/>
    <path d="M56 9V21H64V18H59V15H63V12H59V12H56V9Z" fill="currentColor"/>
    <path d="M68 21H76V18H71V15H75V12H71V9H76V6H68V21Z" fill="currentColor"/>
    <path d="M80 24V21L87 12V9H80V6H90V9L83 18V21H90V24H80Z" fill="currentColor"/>
    
    <!-- Rent -->
    <path d="M98 6V24H101V16H105L108 24H111L108 15C109.5 14.5 110 13 110 11V10C110 7.5 108.5 6 106 6H98ZM101 9H106C106.5 9 107 9.5 107 10V11C107 11.5 106.5 12 106 12H101V9Z" fill="currentColor"/>
    <path d="M116 6V24H119V18H127V15H119V9H128V6H116Z" fill="currentColor"/>
    <path d="M134 6V24H137V17H143V24H146V6H143V14H137V6H134Z" fill="currentColor"/>
    <path d="M152 9V21H160V18H155V15H159V12H155V9H160V6H152V24H155V21H152V9Z" fill="currentColor"/>
    <path d="M166 24V21L173 12V9H166V6H176V9L169 18V21H176V24H166Z" fill="currentColor"/>
  </g>
  
  <!-- Decorative elements -->
  <circle cx="260" cy="12" r="2" fill="currentColor" opacity="0.6"/>
  <circle cx="268" cy="16" r="1.5" fill="currentColor" opacity="0.4"/>
  <circle cx="264" cy="24" r="1" fill="currentColor" opacity="0.3"/>
</svg>
